<?xml version="1.0" encoding="utf-8"?>
<!-- Generator: Adobe Illustrator 26.5.0, SVG Export Plug-In . SVG Version: 6.00 Build 0)  -->
<svg version="1.1" id="Слой_1" xmlns="http://www.w3.org/2000/svg" xmlns:xlink="http://www.w3.org/1999/xlink" x="0px" y="0px"
	 viewBox="0 0 512 512" style="enable-background:new 0 0 512 512;" xml:space="preserve">
<style type="text/css">
	.st0{fill:#FFFFFF;}
</style>
<g>
	<g>
		<path class="st0" d="M5.83,398c0-94.83,0-189.67,0-284.5c166.53,0,333.06,0,499.59,0c0,94.83,0,189.67,0,284.5
			C338.89,398,172.36,398,5.83,398z M8.47,148.83c82.39,82.25,165.15,164.87,247.16,246.74c82.38-82.23,165.11-164.83,247.44-247.02
			c-10.44-10.42-21.37-21.34-32.54-32.49c-71.2,71.07-142.71,142.46-215.1,214.73c-71.98-71.85-143.6-143.35-214.65-214.28
			C29.85,127.44,18.92,138.37,8.47,148.83z"/>
		<path d="M8.47,148.83c10.45-10.46,21.38-21.38,32.32-32.32c71.05,70.93,142.67,142.43,214.65,214.28
			c72.39-72.27,143.91-143.66,215.1-214.73c11.17,11.16,22.1,22.07,32.54,32.49c-82.33,82.18-165.06,164.78-247.44,247.02
			C173.62,313.7,90.86,231.08,8.47,148.83z"/>
	</g>
</g>
</svg>
